<svg xmlns="http://www.w3.org/2000/svg" style="display: none;">

    <symbol id="icon-steam" viewBox="0 0 512 512">
      <path fill="#fff" d="m480 208c0 21-17 37-37 37-21 0-37-16-37-37 0-20 16-37 37-37 20 0 37 17 37 37z m-37-69c-38 0-69 31-70 69l-43 62c-2 0-4-1-5-1-10 0-19 3-27 8l-196-79c-5-23-25-41-50-41-29 0-52 24-52 52 0 29 23 52 52 52 10 0 19-3 26-7l196 78c5 24 26 41 51 41 26 0 49-21 51-47l67-48c38 0 69-31 69-70 0-38-31-69-69-69z m0 23c25 0 46 21 46 46 0 26-21 47-46 47-26 0-47-21-47-47 0-25 21-46 47-46z m-391 9c14 0 27 8 34 20l-19-7 0 0c-16-6-33 2-39 17-6 15 1 32 16 39l0 0 16 6c-2 1-5 1-8 1-21 0-38-17-38-38 0-21 17-38 38-38z m273 112c21 0 38 17 38 38 0 21-17 38-38 38-15 0-28-8-34-20 6 3 12 5 19 8 15 6 33-2 39-17 6-16-1-33-17-40l-16-6c3 0 6-1 9-1z"/>
    </symbol>

    <symbol id="icon-social-twitter" viewBox="0 0 512 512">
      <path fill="#fff" d="m492 110c-17 7-36 12-56 15 20-12 36-31 43-54-19 11-39 19-61 24-18-19-43-31-71-31-54 0-97 43-97 97 0 8 1 15 3 22-81-4-152-43-200-101-8 14-13 31-13 48 0 34 17 64 43 81-16 0-31-5-44-12 0 0 0 1 0 1 0 47 33 86 78 95-8 2-17 4-26 4-6 0-12-1-18-2 12 38 48 66 91 67-34 26-75 42-121 42-8 0-15-1-23-2 43 28 94 44 148 44 179 0 276-148 276-276 0-4 0-8 0-12 19-14 35-31 48-50z"/>
    </symbol>

    <symbol id="icon-social-reddit" viewBox="0 0 512 512">
      <path fill="#fff" d="m481 251c0-28-23-50-50-50-13 0-25 5-34 13-32-23-76-38-124-40l21-74 68 14c2 23 21 40 44 40 0 0 0 0 0 0 0 0 0 0 0 0 25 0 45-20 45-45 0-25-20-45-45-45 0 0 0 0 0 0 0 0 0 0 0 0-17 0-32 10-40 24l-89-18-31 103-3 0c-50 3-95 18-128 41-9-8-21-13-34-13-27 0-49 22-49 50 0 20 11 37 27 45-1 5-2 10-2 15 1 75 89 137 199 137 110 0 199-62 199-137 0-5-1-10-2-15 17-9 28-25 28-45z m-415 20c-7-4-11-12-11-21 0-13 11-25 25-25 5 0 10 2 15 5-14 12-24 26-29 41z m323-162c0-9 8-17 17-17 9 0 16 8 16 17 0 9-7 17-16 17-9 0-17-8-17-17z m-230 179c0-17 14-31 31-31 18 0 32 14 32 31 0 18-14 32-32 32-17 0-31-14-31-32z m97 112c-48 0-76-28-77-30l12-12c1 0 24 24 65 24 40 0 64-24 65-24l12 12c-1 2-29 30-77 30z m66-80c-17 0-31-14-31-32 0-17 14-31 31-31 18 0 32 14 32 31 0 18-14 32-32 32z m124-48c-5-16-15-30-29-42 4-3 10-5 15-5 14 0 25 11 25 25 1 9-4 17-11 22z"/>
    </symbol>

    <symbol id="icon-social-snapchat" viewBox="0 0 512 512">
      <path fill="#fff" d="m496 360l0-14-15-1c-15-2-43-8-54-17-16-15-36-36-36-52 0-1 0-3 5-5 5-4 12-6 19-8 5-2 10-3 14-5 10-5 19-16 18-29-1-15-15-27-30-27-4 0-8 1-12 2-8 3-14 5-18 5 1-9 2-20 3-31 5-38-5-73-29-101-26-29-64-45-105-45l0 0c-41 0-79 16-105 45-24 28-34 64-29 102 2 10 3 21 3 30-4 0-9-2-17-5-4-1-8-2-12-2-16 0-29 12-30 27-1 13 8 24 17 29 4 2 9 3 14 5 7 2 15 4 20 8 4 2 4 4 4 5 0 8-6 25-36 52-10 9-39 15-54 17l-15 1 0 15c0 1 0 10 6 20 6 8 17 19 38 24 7 2 12 3 16 4 2 0 4 1 6 1 0 0 0 1 0 1 1 7 2 12 4 18 3 4 9 12 22 12 3 0 6 0 9-1 2 0 3 0 5-1 7-1 15-2 24-2 10 0 18 2 25 6 5 3 9 6 14 10 18 12 38 27 71 27 33 0 53-15 71-27 5-4 9-7 14-10 7-4 15-6 26-6 8 0 16 1 23 2 2 1 4 1 5 1 4 1 6 1 9 1 13 0 19-8 22-12 3-6 3-11 4-18 0 0 0-1 0-1 2 0 4-1 7-1 4-1 9-2 15-4 22-5 33-16 38-24 6-10 6-19 6-21z m-288-232c9 0 16 11 16 24 0 13-7 24-16 24-9 0-16-11-16-24 0-13 7-24 16-24z m104 78c-16 15-35 23-56 23-21 0-41-8-56-23-3-3-3-9 0-12 3-3 9-3 12 0 12 12 27 19 44 19 16 0 32-7 44-19 4-3 9-3 12 0 3 4 3 9 0 12z m-8-30c-9 0-16-11-16-24 0-13 7-24 16-24 9 0 16 11 16 24 0 13-7 24-16 24z"/>
    </symbol>

    <symbol id="icon-social-tumblr" viewBox="0 0 512 512">
      <path fill="#fff" d="m321 396c-12 0-22-2-31-8-7-4-12-10-14-16-3-7-4-23-4-47l0-101 96 0 0-64-96 0 0-112-62 0c-2 22-7 45-14 59-7 14-14 25-26 35-11 10-25 18-42 24l0 58 48 0 0 140c0 19 2 34 6 44 4 10 11 19 22 28 10 9 22 16 37 21 14 5 31 7 50 7 17 0 31-2 45-5 14-3 30-9 48-18l0-65c-21 13-42 20-63 20z"/>
    </symbol>

    <symbol id="icon-social-instagram" viewBox="0 0 512 512">
      <path fill="#fff" d="m336 256c0 44-36 80-80 80-44 0-80-36-80-80 0-44 36-80 80-80 44 0 80 36 80 80z m-158-79c21-21 49-33 79-33 30 0 58 12 79 33 14 13 23 30 28 48l85 0 0-113c0-27-21-47-47-47l-288 0c-27 0-49 20-49 47l0 113 85 0c5-18 14-35 28-48z m239-29c0 7-6 13-13 13l-39 0c-7 0-12-6-12-13l0-39c0-7 5-12 12-12l39 0c7 0 13 5 13 12z m-81 187c-21 21-49 33-79 33-30 0-58-12-79-33-21-21-33-49-33-78l-80 0 0 143c0 26 22 49 49 49l288 0c26 0 47-23 47-49l0-143-80 0c0 29-12 57-33 78z"/>
    </symbol>

    <symbol id="icon-social-github" viewBox="0 0 512 512">
      <path fill="#fff" d="m256 32c-124 0-224 103-224 230 0 101 64 187 153 218 2 0 3 0 4 0 8 0 12-6 12-11 0-6-1-20-1-39-8 1-16 2-22 2-43 0-53-33-53-33-10-27-25-34-25-34-20-14 0-14 1-14 0 0 0 0 0 0 23 2 35 24 35 24 11 19 26 25 39 25 11 0 20-3 26-6 2-15 8-25 14-31-50-6-102-25-102-113 0-25 9-46 23-62-2-6-10-29 2-61 0 0 2 0 5 0 8 0 27 3 57 24 18-5 37-8 56-8 19 0 38 3 56 8 30-21 49-24 57-24 3 0 5 0 5 0 12 32 4 55 2 61 14 16 23 37 23 62 0 88-53 107-102 113 8 7 15 21 15 43 0 30-1 55-1 63 0 5 4 11 12 11 1 0 2 0 4 0 89-31 153-117 153-218 0-127-100-230-224-230z"/>
    </symbol>

    <symbol id="icon-social-codepen" viewBox="0 0 512 512">
      <path fill="#fff" d="m241 304c-15-10-31-21-46-31-2-1-3-1-5 0l-39 26c31 21 93 62 93 62l0-53c0-2-2-3-3-4z m-46-63c16-10 31-21 46-31 2-1 3-4 3-6l0-51c0 0-62 41-93 62 13 9 26 18 40 26 1 1 3 0 4 0z m75-32c16 11 32 22 47 32 1 1 3 1 4 0l40-26-93-63 0 54c0 1 1 3 2 3z m-12 21c-1 0-4 0-5 1-4 3-9 6-14 9-8 5-25 17-25 17l39 26c1 1 4 1 6 0l39-26c0 0-34-23-40-27z m-117 7l0 40 30-20z m115-205c-124 0-224 100-224 224 0 124 100 224 224 224 124 0 224-100 224-224 0-124-100-224-224-224z m139 265c0 6-3 10-8 13-41 27-82 55-123 82-6 4-11 4-17 0-41-27-81-54-122-82-6-3-8-7-8-13l0-80c0-6 3-10 8-14 41-27 82-54 122-81 6-4 11-4 17 0 41 27 82 54 124 82 4 3 7 7 7 12z m-79-24c-15 10-30 21-45 31-3 1-3 3-3 6l0 51 93-62-38-26c-3-1-4-1-7 0z m54 4l0-40-30 20z"/>
    </symbol>

    <symbol id="icon-planet" viewBox="0 0 512 512">
      <path fill="#fff" d="m96 266c5 84 75 150 160 150 38 0 73-13 100-35-39-11-82-27-126-46-49-22-95-45-134-69z m11-69c40 27 92 55 148 79 44 19 87 34 126 45 6 2 13 3 19 5 2-3 3-7 5-11 7-18 11-38 11-59 0-3 0-6 0-10-5-84-75-150-160-150-38 0-73 13-100 35-19 15-34 34-44 55-2 4-3 7-5 11z m323 88c-2 11-3 13-6 24 17 12 31 24 41 34 3 3 6 6 8 9-2 0-4 0-6 0-22 0-54-5-90-15-40-11-84-27-128-46-59-26-114-56-156-85-19-13-35-26-46-37-3-3-6-6-8-9 2 0 4 0 6 0 15 0 35 3 59 8 6-10 7-13 14-22-25-9-51-15-73-18-25-3-41 6-44 17-11 35 94 114 235 175 94 41 181 64 231 64 25 0 41-6 44-17 7-20-24-47-81-82z"/>
    </symbol>

    <symbol id="icon-playstation" viewBox="0 0 512 512">
      <path fill="#fff" d="m400 203c-1-17-3-34-11-50-4-9-10-17-16-23-7-7-14-12-22-17-17-10-37-17-84-31-47-14-75-18-75-18l0 358 80 26c0 0 0-199 0-299l0-4c0-10 8-17 16-17l1 0c8 0 15 7 15 17l0 133c11 5 29 9 42 9 8 0 17-2 24-6 8-4 14-10 18-17 5-9 9-18 10-28 2-10 2-22 2-33z m-313 155c27-10 89-30 89-30l0-47c0 0-76 25-111 37-9 3-18 6-26 10-10 4-19 8-28 15-4 2-7 5-9 10-2 4-3 9-1 13 2 5 6 10 10 13 8 6 17 9 27 12 28 9 58 14 88 13 15 0 36-2 50-4l0-42c0 0-11 2-41 12-5 2-9 4-14 5-7 1-15 2-22 2-6 0-13-1-19-3-2-1-5-2-6-5 0-2 1-4 2-5 3-3 7-5 11-6z m425-12c0-6-4-11-8-15-7-6-16-10-25-14-5-1-9-3-14-5-25-8-52-11-79-11-8 0-23 1-31 2-21 2-67 15-67 15l0 49c0 0 68-22 97-32 9-3 20-5 30-5 6 1 13 1 19 3 3 1 5 3 6 5 1 3-1 5-3 6-5 4-11 6-16 8-41 14-133 45-133 45l0 47c0 0 117-40 171-59 9-4 18-6 26-11 8-4 16-8 22-15 3-4 5-8 5-13z"/>
    </symbol>

    <symbol id="icon-ios-game-controller-b" viewBox="0 0 512 512">
      <path fill="#fff" d="m135 205c-11 0-19 8-19 19 0 11 8 19 19 19 11 0 19-8 19-19 0-11-8-19-19-19z m331 44c-21-89-43-136-88-149-10-3-18-4-26-4-28 0-47 15-96 15-49 0-69-15-96-15-8 0-16 1-26 4-45 13-67 60-88 149-21 88-18 152 7 164 5 2 9 3 13 3 22 0 45-24 68-52 25-32 32-33 110-33l24 0c78 0 85 1 110 33 23 28 46 52 68 52 4 0 8-1 13-3 25-12 28-76 7-164z m-331 15c-21 0-39-18-39-40 0-22 18-40 39-40 22 0 39 18 39 40 0 22-17 40-39 40z m173-20c-11 0-20-9-20-20 0-11 9-20 20-20 11 0 20 9 20 20 0 11-9 20-20 20z m44 44c-11 0-20-9-20-20 0-11 9-20 20-20 11 0 20 9 20 20 0 11-9 20-20 20z m0-88c-11 0-20-9-20-20 0-11 9-20 20-20 11 0 20 9 20 20 0 11-9 20-20 20z m44 44c-11 0-20-9-20-20 0-11 9-20 20-20 11 0 20 9 20 20 0 11-9 20-20 20z"/>
    </symbol>

    <symbol id="icon-bug" viewBox="0 0 512 512">
      <path fill="#fff" d="m375 127c-30-38-72-63-119-63-47 0-89 25-119 63 7 16 16 30 28 43 25 24 57 37 91 37 34 0 66-13 91-37 12-13 21-27 28-43z m-248 16c-2 3-4 6-5 8-3-1-5-3-8-5-1-1-3-4-4-8 5-11 1-25-10-31-12-6-27-2-33 9-7 12-2 26 9 33 1 1 3 1 4 2 3 6 7 14 14 19 4 4 8 7 15 11-7 20-12 42-13 65-11 1-18 2-25 4-4 2-8 4-12 6-1 0-2 0-3 0-13 0-24 11-24 24 0 13 11 24 24 24 13 0 23-10 24-23 5-1 10-3 17-3 3 33 13 64 29 90-14 11-23 23-27 36 0 0-1 0-2 1-1 1-2 2-3 3-8 10-8 25 2 34 10 9 25 8 34-2 8-9 8-22 1-31 3-6 6-9 13-15 27 31 64 52 104 54l0-225c-53-3-99-35-121-80z m329 113c-1 0-2 0-3 0-4-2-8-4-12-6-7-2-14-3-25-4-1-23-6-45-13-65 7-4 11-7 15-11 7-5 11-13 14-19 1-1 3-1 4-2 11-7 16-21 9-33-6-11-21-15-33-9-11 6-15 20-10 31-1 4-3 7-4 8-3 2-5 4-8 5-1-2-3-5-5-8-22 45-68 77-121 80l0 225c40-2 77-23 104-54 7 6 10 9 13 15-7 9-7 22 1 31 9 10 24 11 34 2 10-9 10-24 2-34-1-1-2-2-3-3-1-1-2-1-2-1-4-13-13-25-27-36 16-26 26-57 29-90 7 0 12 2 17 3 1 13 11 23 24 23 13 0 24-11 24-24 0-13-11-24-24-24z"/>
    </symbol>

    <symbol id="icon-quote" viewBox="0 0 512 512">
      <path fill="#fff" d="m192 64c-41 0-72 11-95 33-22 23-33 54-33 95l0 256 160 0 0-256-96 0c0-23 5-40 15-49 9-10 26-15 49-15m224-64c-41 0-72 11-95 33-22 23-33 54-33 95l0 256 160 0 0-256-96 0c0-23 5-40 15-49 9-10 26-15 49-15"/>
    </symbol>

    <symbol id="icon-code-working" viewBox="0 0 512 512">
      <path fill="#fff" d="m208 256c0 13-11 24-24 24-13 0-24-11-24-24 0-13 11-24 24-24 13 0 24 11 24 24z m72 0c0 13-11 24-24 24-13 0-24-11-24-24 0-13 11-24 24-24 13 0 24 11 24 24z m72 0c0 13-11 24-24 24-13 0-24-11-24-24 0-13 11-24 24-24 13 0 24 11 24 24z m-184 136c-6 0-12-2-17-7l-112-112c-9-9-9-25 0-34l112-112c9-9 25-9 34 0 9 9 9 25 0 34l-95 95 95 95c9 9 9 25 0 34-5 5-11 7-17 7z m176 0c6 0 12-2 17-7l112-112c9-9 9-25 0-34l-112-112c-9-9-25-9-34 0-9 9-9 25 0 34l95 95-95 95c-9 9-9 25 0 34 5 5 11 7 17 7z"/>
    </symbol>

    <symbol id="icon-coffee" viewBox="0 0 512 512">
      <path fill="#fff" d="m383 257c1-5 1-10 1-13 0-20-3-20-16-20l-75 0c7-12 11-24 11-37 0-38-57-56-57-88 0-12 5-21 9-35-26 7-47 34-47 62 0 48 56 48 56 84 0 5-1 9-2 14l-56 0c1-3 1-6 1-9 0-23-39-34-39-53 0-7 1-13 3-21-13 5-28 20-28 37 0 26 32 29 37 46l-101 0c-13 0-16 0-16 20 0 19 8 61 28 111 21 49 45 71 62 86l0 0c5 4 11 7 19 7l102 0c8 0 14-3 19-7l1 0c9-8 20-18 31-33 5 2 10 4 15 5 9 2 17 3 25 3 24 0 46-9 61-26 13-14 21-34 21-54 0-39-28-71-65-79z m-17 127c-8 0-15-1-22-4 4-8 8-16 12-25 10-24 17-47 21-66 22 4 39 24 39 47 0 23-17 48-50 48z"/>
    </symbol>

</svg>
